<?xml version="1.0" encoding="UTF-8"?>
<svg id="Layer_1" data-name="Layer 1" xmlns="http://www.w3.org/2000/svg" viewBox="0 0 640 640">
  <defs>
    <style>
      .cls-1 {
        fill: #fff;
      }
    </style>
  </defs>
  <path class="cls-1" d="M406.6,73.4c-12.5-12.5-32.8-12.5-45.3,0s-12.5,32.8,0,45.3l9.4,9.3L92.1,406.6c-18,18-28.1,42.4-28.1,67.9v5.5c0,53,43,96,96,96h5.5c25.5,0,49.9-10.1,67.9-28.1l278.6-278.6,9.4,9.4c12.5,12.5,32.8,12.5,45.3,0s12.5-32.8,0-45.3l-160-160h-.1ZM269.2,320l146.8-146.7,50.7,50.7-96,96h-101.5Z"/>
</svg>